<svg width="42" height="112" viewBox="0 0 42 112" fill="none" xmlns="http://www.w3.org/2000/svg">
<mask id="path-1-outside-1_2515_12354" maskUnits="userSpaceOnUse" x="0" y="0" width="42" height="112" fill="black">
<rect fill="white" width="42" height="112"/>
<path d="M40.5938 111H19.9609C19.9115 100.857 19.5156 91.4557 18.7734 82.7969C18.0807 74.138 16.9674 65.8503 15.4336 57.9336C13.9492 49.9674 12.0443 42.026 9.71875 34.1094C7.44271 26.1927 4.67188 17.9297 1.40625 9.32031L21 2.04688C25.4531 14.0703 29.0898 25.6979 31.9102 36.9297C34.7799 48.1615 36.9076 59.7643 38.293 71.7383C39.7279 83.6628 40.4948 96.75 40.5938 111Z"/>
</mask>
<path d="M40.5938 111V112H41.6007L41.5937 110.993L40.5938 111ZM19.9609 111L18.9609 111.005L18.9658 112H19.9609V111ZM18.7734 82.7969L17.7766 82.8766L17.7771 82.8823L18.7734 82.7969ZM15.4336 57.9336L14.4505 58.1168L14.4519 58.1238L15.4336 57.9336ZM9.71875 34.1094L8.75766 34.3857L8.75929 34.3912L9.71875 34.1094ZM1.40625 9.32031L1.05824 8.38282L0.114072 8.73331L0.471252 9.67497L1.40625 9.32031ZM21 2.04688L21.9377 1.69956L21.5902 0.761118L20.652 1.10938L21 2.04688ZM31.9102 36.9297L30.9403 37.1732L30.9413 37.1772L31.9102 36.9297ZM38.293 71.7383L37.2996 71.8532L37.3001 71.8577L38.293 71.7383ZM40.5938 110H19.9609V112H40.5938V110ZM20.9609 110.995C20.9113 100.829 20.5146 91.4011 19.7698 82.7115L17.7771 82.8823C18.5166 91.5104 18.9116 100.884 18.9609 111.005L20.9609 110.995ZM19.7703 82.7171C19.0748 74.024 17.9568 65.6992 16.4153 57.7434L14.4519 58.1238C15.9781 66.0013 17.0867 74.252 17.7766 82.8766L19.7703 82.7171ZM16.4167 57.7504C14.926 49.7504 13.0131 41.7761 10.6782 33.8275L8.75929 34.3912C11.0754 42.276 12.9725 50.1845 14.4505 58.1168L16.4167 57.7504ZM10.6798 33.8331C8.39535 25.8871 5.61552 17.5978 2.34125 8.96566L0.471252 9.67497C3.72823 18.2615 6.49007 26.4983 8.75768 34.3857L10.6798 33.8331ZM1.75426 10.2578L21.348 2.98437L20.652 1.10938L1.05824 8.38282L1.75426 10.2578ZM20.0623 2.39419C24.5041 14.3872 28.1297 25.9801 30.9403 37.1732L32.88 36.6861C30.05 25.4157 26.4021 13.7534 21.9377 1.69956L20.0623 2.39419ZM30.9413 37.1772C33.7995 48.3637 35.9191 59.9222 37.2996 71.8532L39.2863 71.6233C37.896 59.6064 35.7604 47.9592 32.879 36.6821L30.9413 37.1772ZM37.3001 71.8577C38.7298 83.7388 39.495 96.7878 39.5938 111.007L41.5937 110.993C41.4946 96.7122 40.7259 83.5867 39.2858 71.6188L37.3001 71.8577Z" fill="#0B2FA6" mask="url(#path-1-outside-1_2515_12354)"/>
</svg>
