<svg width="80" height="112" viewBox="0 0 80 112" fill="none" xmlns="http://www.w3.org/2000/svg">
<mask id="path-1-outside-1_2515_17995" maskUnits="userSpaceOnUse" x="0" y="0" width="80" height="112" fill="black">
<rect fill="white" width="80" height="112"/>
<path d="M42.7461 35.8164C47.4961 35.8164 50.8112 34.1589 52.6914 30.8438C54.6211 27.4792 56.0312 21.7148 56.9219 13.5508L58.332 2.64062L78.5195 5.75781C77.1836 17.138 75.3034 26.638 72.8789 34.2578C70.5039 41.8281 67.1641 47.5182 62.8594 51.3281C58.5547 55.138 52.8893 57.043 45.8633 57.043C42.4987 57.043 39.3815 55.9792 36.5117 53.8516L35.9922 54.2969C37.6745 63.1536 38.862 72.2331 39.5547 81.5352C40.2969 90.7878 40.6927 100.609 40.7422 111H20.2578C20.2083 101.648 19.8372 92.8411 19.1445 84.5781C18.5013 76.3151 17.4622 68.2253 16.0273 60.3086C14.6419 52.3919 12.7617 44.2773 10.3867 35.9648C8.01172 27.6523 5.09245 18.7708 1.62891 9.32031L21.1484 2.04688L25.2305 13.4023C27.3086 19.1419 29.1641 23.6445 30.7969 26.9102C32.4297 30.1758 34.1615 32.4766 35.9922 33.8125C37.8724 35.1484 40.1237 35.8164 42.7461 35.8164Z"/>
</mask>
<path d="M52.6914 30.8438L51.8239 30.3462L51.8216 30.3504L52.6914 30.8438ZM56.9219 13.5508L55.9301 13.4226L55.9289 13.4325L55.9278 13.4423L56.9219 13.5508ZM58.332 2.64062L58.4846 1.65234L57.4717 1.49592L57.3403 2.51244L58.332 2.64062ZM78.5195 5.75781L79.5127 5.8744L79.6251 4.91668L78.6721 4.76953L78.5195 5.75781ZM72.8789 34.2578L71.926 33.9546L71.9248 33.9585L72.8789 34.2578ZM36.5117 53.8516L37.1073 53.0483L36.4665 52.5732L35.8609 53.0923L36.5117 53.8516ZM35.9922 54.2969L35.3414 53.5376L34.9017 53.9145L35.0098 54.4835L35.9922 54.2969ZM39.5547 81.5352L38.5574 81.6094L38.5579 81.6151L39.5547 81.5352ZM40.7422 111V112H41.747L41.7422 110.995L40.7422 111ZM20.2578 111L19.2578 111.005L19.2631 112H20.2578V111ZM19.1445 84.5781L18.1475 84.6557L18.148 84.6617L19.1445 84.5781ZM16.0273 60.3086L15.0423 60.481L15.0434 60.4869L16.0273 60.3086ZM1.62891 9.32031L1.27974 8.38325L0.347718 8.73055L0.689977 9.66442L1.62891 9.32031ZM21.1484 2.04688L22.0895 1.70859L21.7473 0.756575L20.7993 1.10982L21.1484 2.04688ZM25.2305 13.4023L24.2894 13.7406L24.2902 13.7428L25.2305 13.4023ZM35.9922 33.8125L35.4027 34.6204L35.413 34.6277L35.9922 33.8125ZM42.7461 36.8164C47.7524 36.8164 51.4576 35.0462 53.5612 31.3371L51.8216 30.3504C50.1648 33.2715 47.2398 34.8164 42.7461 34.8164V36.8164ZM53.5589 31.3413C55.5987 27.7846 57.0234 21.8411 57.916 13.6592L55.9278 13.4423C55.0391 21.5886 53.6435 27.1737 51.8239 30.3462L53.5589 31.3413ZM57.9136 13.679L59.3238 2.76881L57.3403 2.51244L55.9301 13.4226L57.9136 13.679ZM58.1794 3.62891L78.3669 6.7461L78.6721 4.76953L58.4846 1.65234L58.1794 3.62891ZM77.5264 5.64122C76.1949 16.9828 74.3248 26.4154 71.926 33.9546L73.8318 34.561C76.282 26.8606 78.1722 17.2932 79.5127 5.8744L77.5264 5.64122ZM71.9248 33.9585C69.5844 41.4185 66.3228 46.9274 62.1966 50.5793L63.5221 52.077C68.0053 48.1091 71.4235 42.2378 73.8331 34.5572L71.9248 33.9585ZM62.1966 50.5793C58.1132 54.1934 52.7018 56.043 45.8633 56.043V58.043C53.0768 58.043 58.9962 56.0827 63.5221 52.077L62.1966 50.5793ZM45.8633 56.043C42.7269 56.043 39.8161 55.0565 37.1073 53.0483L35.9162 54.6549C38.9469 56.9018 42.2705 58.043 45.8633 58.043V56.043ZM35.8609 53.0923L35.3414 53.5376L36.643 55.0561L37.1625 54.6108L35.8609 53.0923ZM35.0098 54.4835C36.6847 63.3019 37.8675 72.3437 38.5574 81.6094L40.5519 81.4609C39.8565 72.1224 38.6642 63.0054 36.9746 54.1103L35.0098 54.4835ZM38.5579 81.6151C39.2979 90.84 39.6928 100.636 39.7422 111.005L41.7422 110.995C41.6926 100.582 41.2959 90.7356 40.5515 81.4552L38.5579 81.6151ZM40.7422 110H20.2578V112H40.7422V110ZM21.2578 110.995C21.2082 101.62 20.8362 92.7867 20.141 84.4946L18.148 84.6617C18.8383 92.8956 19.2085 101.677 19.2578 111.005L21.2578 110.995ZM20.1415 84.5005C19.4957 76.2047 18.4524 68.0812 17.0113 60.1302L15.0434 60.4869C16.4721 68.3693 17.5069 76.4255 18.1475 84.6557L20.1415 84.5005ZM17.0124 60.1362C15.6205 52.1826 13.7321 44.0338 11.3482 35.6901L9.42519 36.2396C11.7913 44.5209 13.6634 52.6013 15.0423 60.481L17.0124 60.1362ZM11.3482 35.6901C8.96558 27.3508 6.03843 18.446 2.56784 8.9762L0.689977 9.66442C4.14647 19.0957 7.05786 27.9539 9.42519 36.2396L11.3482 35.6901ZM1.97808 10.2574L21.4976 2.98393L20.7993 1.10982L1.27974 8.38325L1.97808 10.2574ZM20.2074 2.38516L24.2894 13.7406L26.1715 13.0641L22.0895 1.70859L20.2074 2.38516ZM24.2902 13.7428C26.374 19.4981 28.2447 24.0418 29.9024 27.3574L31.6913 26.4629C30.0835 23.2473 28.2432 18.7857 26.1707 13.0619L24.2902 13.7428ZM29.9024 27.3574C31.5678 30.688 33.3874 33.1497 35.4027 34.6203L36.5817 33.0047C34.9355 31.8034 33.2916 29.6636 31.6913 26.4629L29.9024 27.3574ZM35.413 34.6277C37.485 36.0999 39.9457 36.8164 42.7461 36.8164V34.8164C40.3017 34.8164 38.2598 34.197 36.5714 32.9973L35.413 34.6277Z" fill="#0B2FA6" mask="url(#path-1-outside-1_2515_17995)"/>
</svg>
