<svg width="72" height="72" viewBox="0 0 72 72" fill="none" xmlns="http://www.w3.org/2000/svg">
<rect x="0.5" y="0.5" width="71" height="71" rx="11.5" stroke="#08237D"/>
<path d="M36 57.4995C34.6 57.4995 33.18 56.9594 32.12 55.8994L28.7 52.5195C27.84 51.6795 26.72 51.2195 25.52 51.2195H24C19.86 51.2195 16.5 47.8795 16.5 43.7795V21.9595C16.5 17.8595 19.86 14.5195 24 14.5195H48C52.14 14.5195 55.5 17.8595 55.5 21.9595V43.7795C55.5 47.8795 52.14 51.2195 48 51.2195H46.48C45.28 51.2195 44.14 51.6795 43.3 52.5195L39.88 55.8994C38.82 56.9594 37.4 57.4995 36 57.4995ZM24 17.4995C21.52 17.4995 19.5 19.4995 19.5 21.9395V43.7595C19.5 46.2195 21.52 48.1995 24 48.1995H25.52C27.52 48.1995 29.4 48.9794 30.82 50.3794L34.24 53.7595C35.22 54.7195 36.8 54.7195 37.78 53.7595L41.2 50.3794C42.62 48.9794 44.5 48.1995 46.5 48.1995H48C50.48 48.1995 52.5 46.1995 52.5 43.7595V21.9395C52.5 19.4795 50.48 17.4995 48 17.4995H24Z" fill="#194BF0"/>
<path d="M32.7605 41.022H27.4005C26.5205 41.022 25.7005 40.6018 25.1805 39.8818C24.6805 39.2018 24.5604 38.362 24.8004 37.562C25.5004 35.422 27.2204 34.2619 28.7404 33.2219C30.3404 32.1419 31.2404 31.462 31.2404 30.302C31.2404 29.262 30.4004 28.4219 29.3604 28.4219C28.3204 28.4219 27.4805 29.262 27.4805 30.302C27.4805 31.122 26.8005 31.802 25.9805 31.802C25.1605 31.802 24.4805 31.122 24.4805 30.302C24.4805 27.622 26.6604 25.4219 29.3604 25.4219C32.0604 25.4219 34.2404 27.602 34.2404 30.302C34.2404 33.122 32.1205 34.5619 30.4205 35.7219C29.3605 36.4419 28.3604 37.122 27.8604 38.022H32.7404C33.5604 38.022 34.2404 38.702 34.2404 39.522C34.2404 40.342 33.5805 41.022 32.7605 41.022Z" fill="#194BF0"/>
<path d="M44.0817 41.0179C43.2617 41.0179 42.5817 40.3379 42.5817 39.5179V38.1378H38.6617C38.6617 38.1378 38.6617 38.1378 38.6417 38.1378C37.6617 38.1378 36.7617 37.6179 36.2617 36.7779C35.7617 35.9179 35.7617 34.8579 36.2617 34.0179C37.6217 31.6779 39.2017 29.0179 40.6417 26.6979C41.2817 25.6779 42.5017 25.218 43.6417 25.538C44.7817 25.878 45.5817 26.918 45.5617 28.118V35.1578H46.0017C46.8217 35.1578 47.5017 35.8378 47.5017 36.6578C47.5017 37.4778 46.8217 38.1578 46.0017 38.1578H45.5817V39.538C45.5817 40.358 44.9217 41.0179 44.0817 41.0179ZM42.5817 29.2779C41.4017 31.1979 40.1817 33.2578 39.0817 35.1378H42.5817V29.2779Z" fill="#194BF0"/>
</svg>
