<svg width="102" height="112" viewBox="0 0 102 112" fill="none" xmlns="http://www.w3.org/2000/svg">
<mask id="path-1-outside-1_2515_17994" maskUnits="userSpaceOnUse" x="0" y="0" width="102" height="112" fill="black">
<rect fill="white" width="102" height="112"/>
<path d="M55.3047 44.6484C54.0182 48.4089 52.3112 51.2292 50.1836 53.1094C48.1055 54.9401 45.2357 55.8555 41.5742 55.8555C40.3867 55.8555 39.3724 55.6576 38.5312 55.2617C37.7396 54.8164 36.9232 54.1979 36.082 53.4062L35.4883 53.9258C37.1211 63.1784 38.3086 72.3815 39.0508 81.5352C39.793 90.6393 40.1888 100.461 40.2383 111H19.6797C19.6302 98.4323 18.987 86.6315 17.75 75.5977C16.5625 64.5143 14.6576 53.5794 12.0352 42.793C9.46224 31.957 6.02344 20.7005 1.71875 9.02344L21.2383 2.04688L26.4336 19.9336C28.1654 25.1289 29.8477 28.8151 31.4805 30.9922C33.1133 33.1693 35.2904 34.2578 38.0117 34.2578C40.8815 34.2578 42.9844 33.1445 44.3203 30.918C45.6562 28.6914 46.4727 25.3021 46.7695 20.75C46.8685 17.9297 46.9427 15.5052 46.9922 13.4766C47.0417 11.3984 47.0417 9.22135 46.9922 6.94531L63.6914 7.01953C63.4935 10.2357 63.3203 12.8828 63.1719 14.9609C63.0234 16.9896 62.9492 19.5378 62.9492 22.6055C62.9492 26.4648 63.6667 29.3841 65.1016 31.3633C66.5859 33.293 69.0352 34.2578 72.4492 34.2578C75.6654 34.2578 77.8424 33.293 78.9805 31.3633C80.168 29.3841 80.7617 26.4401 80.7617 22.5312C80.7617 17.6823 80.1927 11.9674 79.0547 5.38672L98.2031 1.89844C99.638 9.46875 100.355 16 100.355 21.4922C100.355 32.3281 98.0547 40.7643 93.4531 46.8008C88.901 52.8372 82.2708 55.8555 73.5625 55.8555C69.3568 55.8555 65.8438 54.9154 63.0234 53.0352C60.2031 51.1549 57.8776 48.3594 56.0469 44.6484H55.3047Z"/>
</mask>
<path d="M55.3047 44.6484V43.6484H54.5899L54.3585 44.3247L55.3047 44.6484ZM50.1836 53.1094L50.8446 53.8597L50.8458 53.8587L50.1836 53.1094ZM38.5312 55.2617L38.041 56.1333L38.0726 56.1511L38.1055 56.1665L38.5312 55.2617ZM36.082 53.4062L36.7674 52.678L36.1065 52.0561L35.4235 52.6537L36.082 53.4062ZM35.4883 53.9258L34.8298 53.1732L34.4055 53.5444L34.5035 54.0996L35.4883 53.9258ZM39.0508 81.5352L38.0541 81.616L38.0541 81.6164L39.0508 81.5352ZM40.2383 111V112H41.243L41.2383 110.995L40.2383 111ZM19.6797 111L18.6797 111.004L18.6836 112H19.6797V111ZM17.75 75.5977L16.7557 75.7042L16.7562 75.7091L17.75 75.5977ZM12.0352 42.793L11.0622 43.024L11.0635 43.0292L12.0352 42.793ZM1.71875 9.02344L1.38219 8.08178L0.431136 8.4217L0.780475 9.36933L1.71875 9.02344ZM21.2383 2.04688L22.1986 1.76795L21.9022 0.747616L20.9017 1.10522L21.2383 2.04688ZM26.4336 19.9336L25.4733 20.2125L25.4787 20.2313L25.4849 20.2498L26.4336 19.9336ZM46.7695 20.75L47.7674 20.8151L47.7684 20.8001L47.7689 20.7851L46.7695 20.75ZM46.9922 13.4766L47.9919 13.5009L47.9919 13.5004L46.9922 13.4766ZM46.9922 6.94531L46.9966 5.94532L45.9701 5.94076L45.9924 6.96705L46.9922 6.94531ZM63.6914 7.01953L64.6895 7.08095L64.7545 6.02425L63.6959 6.01954L63.6914 7.01953ZM63.1719 14.9609L64.1692 15.0339L64.1693 15.0322L63.1719 14.9609ZM65.1016 31.3633L64.292 31.9502L64.3003 31.9617L64.3089 31.973L65.1016 31.3633ZM78.9805 31.3633L78.1229 30.8488L78.1191 30.8553L78.9805 31.3633ZM79.0547 5.38672L78.8755 4.40291L77.9004 4.58053L78.0693 5.55712L79.0547 5.38672ZM98.2031 1.89844L99.1856 1.71221L99.0007 0.736681L98.0239 0.914629L98.2031 1.89844ZM93.4531 46.8008L92.6578 46.1945L92.6547 46.1987L93.4531 46.8008ZM56.0469 44.6484L56.9437 44.206L56.6686 43.6484H56.0469V44.6484ZM54.3585 44.3247C53.1069 47.9833 51.4773 50.6316 49.5214 52.36L50.8458 53.8587C53.1451 51.8268 54.9296 48.8344 56.2509 44.9721L54.3585 44.3247ZM49.5226 52.359C47.6791 53.983 45.072 54.8555 41.5742 54.8555V56.8555C45.3993 56.8555 48.5318 55.8972 50.8446 53.8597L49.5226 52.359ZM41.5742 54.8555C40.4945 54.8555 39.6334 54.6752 38.957 54.3569L38.1055 56.1665C39.1114 56.6399 40.279 56.8555 41.5742 56.8555V54.8555ZM39.0215 54.3901C38.3165 53.9936 37.5647 53.4284 36.7674 52.678L35.3967 54.1345C36.2817 54.9674 37.1627 55.6392 38.041 56.1333L39.0215 54.3901ZM35.4235 52.6537L34.8298 53.1732L36.1468 54.6784L36.7405 54.1588L35.4235 52.6537ZM34.5035 54.0996C36.131 63.3221 37.3144 72.4942 38.0541 81.616L40.0475 81.4543C39.3027 72.2688 38.1112 63.0347 36.4731 53.752L34.5035 54.0996ZM38.0541 81.6164C38.7939 90.6916 39.1889 100.487 39.2383 111.005L41.2383 110.995C41.1887 100.434 40.792 90.5871 40.0475 81.4539L38.0541 81.6164ZM40.2383 110H19.6797V112H40.2383V110ZM20.6797 110.996C20.6301 98.397 19.9852 86.5601 18.7438 75.4862L16.7562 75.7091C17.9887 86.7029 18.6303 98.4675 18.6797 111.004L20.6797 110.996ZM18.7443 75.4911C17.5521 64.3643 15.6397 53.3861 13.0069 42.5567L11.0635 43.0292C13.6754 53.7728 15.5729 64.6644 16.7557 75.7042L18.7443 75.4911ZM13.0081 42.5619C10.4249 31.6828 6.97398 20.3879 2.65703 8.67755L0.780475 9.36933C5.0729 21.0131 8.49954 32.2312 11.0622 43.024L13.0081 42.5619ZM2.05531 9.9651L21.5748 2.98853L20.9017 1.10522L1.38219 8.08178L2.05531 9.9651ZM20.278 2.3258L25.4733 20.2125L27.3939 19.6547L22.1986 1.76795L20.278 2.3258ZM25.4849 20.2498C27.2235 25.4656 28.9464 29.2802 30.6805 31.5922L32.2805 30.3922C30.7489 28.3501 29.1072 24.7922 27.3823 19.6174L25.4849 20.2498ZM30.6805 31.5922C32.5021 34.0211 34.9756 35.2578 38.0117 35.2578V33.2578C35.6051 33.2578 33.7244 32.3175 32.2805 30.3922L30.6805 31.5922ZM38.0117 35.2578C41.1884 35.2578 43.6394 33.9965 45.1778 31.4325L43.4628 30.4035C42.3293 32.2926 40.5747 33.2578 38.0117 33.2578V35.2578ZM45.1778 31.4325C46.6361 29.0021 47.4669 25.4227 47.7674 20.8151L45.7717 20.6849C45.4784 25.1814 44.6764 28.3808 43.4628 30.4035L45.1778 31.4325ZM47.7689 20.7851C47.868 17.9625 47.9423 15.5342 47.9919 13.5009L45.9925 13.4522C45.9431 15.4762 45.869 17.8969 45.7701 20.7149L47.7689 20.7851ZM47.9919 13.5004C48.0418 11.4057 48.0417 9.21339 47.992 6.92358L45.9924 6.96705C46.0416 9.22932 46.0416 11.3912 45.9925 13.4528L47.9919 13.5004ZM46.9877 7.9453L63.687 8.01952L63.6959 6.01954L46.9966 5.94532L46.9877 7.9453ZM62.6933 6.95811C62.4955 10.1725 62.3225 12.8161 62.1744 14.8897L64.1693 15.0322C64.3181 12.9495 64.4915 10.2988 64.6895 7.08095L62.6933 6.95811ZM62.1745 14.888C62.0237 16.9497 61.9492 19.5243 61.9492 22.6055H63.9492C63.9492 19.5512 64.0232 17.0294 64.1692 15.0339L62.1745 14.888ZM61.9492 22.6055C61.9492 26.5625 62.6803 29.7272 64.292 31.9502L65.9112 30.7763C64.6531 29.041 63.9492 26.3672 63.9492 22.6055H61.9492ZM64.3089 31.973C66.0509 34.2375 68.857 35.2578 72.4492 35.2578V33.2578C69.2133 33.2578 67.121 32.3485 65.8942 30.7536L64.3089 31.973ZM72.4492 35.2578C75.8494 35.2578 78.4518 34.2283 79.8418 31.8713L78.1191 30.8553C77.2331 32.3577 75.4814 33.2578 72.4492 33.2578V35.2578ZM79.838 31.8778C81.1628 29.6696 81.7617 26.5103 81.7617 22.5312H79.7617C79.7617 26.3699 79.1731 29.0986 78.123 30.8488L79.838 31.8778ZM81.7617 22.5312C81.7617 17.6084 81.1845 11.8339 80.0401 5.21632L78.0693 5.55712C79.201 12.101 79.7617 17.7562 79.7617 22.5312H81.7617ZM79.2339 6.37053L98.3823 2.88225L98.0239 0.914629L78.8755 4.40291L79.2339 6.37053ZM97.2206 2.08466C98.6481 9.61604 99.3555 16.0818 99.3555 21.4922H101.355C101.355 15.9182 100.628 9.32146 99.1856 1.71221L97.2206 2.08466ZM99.3555 21.4922C99.3555 32.2 97.0804 40.3929 92.6578 46.1945L94.2484 47.407C99.029 41.1358 101.355 32.4563 101.355 21.4922H99.3555ZM92.6547 46.1987C88.322 51.9442 82.0112 54.8555 73.5625 54.8555V56.8555C82.5305 56.8555 89.4801 53.7302 94.2515 47.4029L92.6547 46.1987ZM73.5625 54.8555C69.5065 54.8555 66.1985 53.95 63.5781 52.2031L62.4687 53.8672C65.489 55.8807 69.2071 56.8555 73.5625 56.8555V54.8555ZM63.5781 52.2031C60.9333 50.4398 58.7137 47.7939 56.9437 44.206L55.1501 45.0909C57.0415 48.9248 59.473 51.87 62.4687 53.8672L63.5781 52.2031ZM56.0469 43.6484H55.3047V45.6484H56.0469V43.6484Z" fill="#0B2FA6" mask="url(#path-1-outside-1_2515_17994)"/>
</svg>
