<svg width="85" height="112" viewBox="0 0 85 112" fill="none" xmlns="http://www.w3.org/2000/svg">
<mask id="path-1-outside-1_2515_18114" maskUnits="userSpaceOnUse" x="0" y="0" width="85" height="112" fill="black">
<rect fill="white" width="85" height="112"/>
<path d="M32.2383 25.5C34.8607 17.4349 38.7943 11.3984 44.0391 7.39062C49.3333 3.38281 56.1367 1.37891 64.4492 1.37891C69.694 1.37891 75.7057 2.66536 82.4844 5.23828L76.6211 23.5703C71.7721 21.7396 67.0716 20.8242 62.5195 20.8242C57.1263 20.8242 52.6979 22.5065 49.2344 25.8711C45.8203 29.1862 44.0638 33.5898 43.9648 39.082C44.806 42.1003 46.8841 44.4753 50.1992 46.207C53.5143 47.9388 57.6458 48.8047 62.5938 48.8047C65.4635 48.8047 68.2591 48.5573 70.9805 48.0625C73.7018 47.5182 76.349 46.776 78.9219 45.8359L83.5977 64.0938C76.2253 66.9141 69.4961 68.3242 63.4102 68.3242C57.918 68.3242 53.069 67.4336 48.8633 65.6523C44.707 63.8711 40.6003 61.1003 36.543 57.3398L35.875 57.6367C36.9635 63.8711 37.8294 69.7096 38.4727 75.1523C39.1654 80.5456 39.6602 86.0872 39.957 91.7773C40.3034 97.4674 40.4766 103.875 40.4766 111H19.918C19.8685 97.9375 19.2253 85.7904 17.9883 74.5586C16.7513 63.3268 14.8216 52.3919 12.1992 41.7539C9.6263 31.0664 6.23698 20.0573 2.03125 8.72656L22.4414 2.04688C24.2227 6.69792 25.8307 10.8047 27.2656 14.3672C28.7005 17.8802 30.1107 21.5911 31.4961 25.5H32.2383Z"/>
</mask>
<path d="M32.2383 25.5V26.5H32.9647L33.1893 25.8092L32.2383 25.5ZM44.0391 7.39062L43.4355 6.59331L43.4319 6.59605L44.0391 7.39062ZM82.4844 5.23828L83.4368 5.54292L83.7257 4.63983L82.8392 4.30336L82.4844 5.23828ZM76.6211 23.5703L76.2679 24.5059L77.2528 24.8777L77.5736 23.8749L76.6211 23.5703ZM49.2344 25.8711L49.931 26.5885L49.9312 26.5884L49.2344 25.8711ZM43.9648 39.082L42.965 39.064L42.9624 39.2099L43.0016 39.3505L43.9648 39.082ZM50.1992 46.207L49.7362 47.0934L50.1992 46.207ZM70.9805 48.0625L71.1594 49.0464L71.168 49.0448L71.1766 49.0431L70.9805 48.0625ZM78.9219 45.8359L79.8906 45.5878L79.6165 44.5175L78.5787 44.8967L78.9219 45.8359ZM83.5977 64.0938L83.955 65.0277L84.7876 64.7092L84.5664 63.8457L83.5977 64.0938ZM48.8633 65.6523L48.4694 66.5715L48.4733 66.5732L48.8633 65.6523ZM36.543 57.3398L37.2227 56.6064L36.7392 56.1583L36.1368 56.426L36.543 57.3398ZM35.875 57.6367L35.4689 56.7229L34.7557 57.0399L34.8899 57.8087L35.875 57.6367ZM38.4727 75.1523L37.4795 75.2697L37.4808 75.2797L38.4727 75.1523ZM39.957 91.7773L38.9584 91.8295L38.9589 91.8381L39.957 91.7773ZM40.4766 111V112H41.4766V111H40.4766ZM19.918 111L18.918 111.004L18.9217 112H19.918V111ZM12.1992 41.7539L11.227 41.988L11.2283 41.9933L12.1992 41.7539ZM2.03125 8.72656L1.72021 7.77617L0.731877 8.09962L1.09375 9.07454L2.03125 8.72656ZM22.4414 2.04688L23.3753 1.68923L23.0349 0.800455L22.1304 1.09648L22.4414 2.04688ZM27.2656 14.3672L26.338 14.7408L26.3399 14.7453L27.2656 14.3672ZM31.4961 25.5L30.5535 25.8341L30.7896 26.5H31.4961V25.5ZM33.1893 25.8092C35.7667 17.8823 39.603 12.039 44.6462 8.1852L43.4319 6.59605C37.9855 10.7579 33.9546 16.9875 31.2873 25.1908L33.1893 25.8092ZM44.6426 8.18793C49.7234 4.34172 56.2989 2.37891 64.4492 2.37891V0.378906C55.9746 0.378906 48.9432 2.4239 43.4355 6.59332L44.6426 8.18793ZM64.4492 2.37891C69.5361 2.37891 75.424 3.62802 82.1295 6.1732L82.8392 4.30336C75.9875 1.70271 69.852 0.378906 64.4492 0.378906V2.37891ZM81.5319 4.93365L75.6686 23.2657L77.5736 23.8749L83.4368 5.54292L81.5319 4.93365ZM76.9743 22.6348C72.0279 20.7673 67.2078 19.8242 62.5195 19.8242V21.8242C66.9354 21.8242 71.5163 22.7119 76.2679 24.5059L76.9743 22.6348ZM62.5195 19.8242C56.8992 19.8242 52.2102 21.5861 48.5376 25.1538L49.9312 26.5884C53.1856 23.4269 57.3534 21.8242 62.5195 21.8242V19.8242ZM48.5377 25.1537C44.9048 28.6813 43.0679 33.3519 42.965 39.064L44.9647 39.1C45.0597 33.8278 46.7358 29.6911 49.931 26.5885L48.5377 25.1537ZM43.0016 39.3505C43.9312 42.6861 46.2275 45.2605 49.7362 47.0934L50.6622 45.3207C47.5407 43.69 45.6808 41.5144 44.9281 38.8136L43.0016 39.3505ZM49.7362 47.0934C53.2328 48.92 57.5347 49.8047 62.5938 49.8047V47.8047C57.757 47.8047 53.7958 46.9576 50.6622 45.3207L49.7362 47.0934ZM62.5938 49.8047C65.5213 49.8047 68.3768 49.5523 71.1594 49.0464L70.8016 47.0786C68.1414 47.5623 65.4058 47.8047 62.5938 47.8047V49.8047ZM71.1766 49.0431C73.9473 48.4889 76.6436 47.733 79.2651 46.7752L78.5787 44.8967C76.0543 45.819 73.4564 46.5475 70.7844 47.0819L71.1766 49.0431ZM77.9531 46.084L82.6289 64.3418L84.5664 63.8457L79.8906 45.5878L77.9531 46.084ZM83.2404 63.1598C75.9498 65.9488 69.3437 67.3242 63.4102 67.3242V69.3242C69.6485 69.3242 76.5007 67.8794 83.955 65.0277L83.2404 63.1598ZM63.4102 67.3242C58.0254 67.3242 53.3133 66.4511 49.2533 64.7315L48.4733 66.5732C52.8247 68.4161 57.8105 69.3242 63.4102 69.3242V67.3242ZM49.2572 64.7332C45.2267 63.0058 41.2142 60.3058 37.2227 56.6064L35.8632 58.0733C39.9863 61.8947 44.1874 64.7364 48.4694 66.5715L49.2572 64.7332ZM36.1368 56.426L35.4689 56.7229L36.2811 58.5505L36.9491 58.2537L36.1368 56.426ZM34.8899 57.8087C35.9757 64.0277 36.8388 69.8478 37.4796 75.2697L39.4657 75.035C38.8201 69.5715 37.9513 63.7145 36.8601 57.4647L34.8899 57.8087ZM37.4808 75.2797C38.1702 80.6468 38.6628 86.1633 38.9584 91.8294L40.9557 91.7252C40.6575 86.0112 40.1606 80.4443 39.4645 75.0249L37.4808 75.2797ZM38.9589 91.8381C39.3037 97.5037 39.4766 103.891 39.4766 111H41.4766C41.4766 103.859 41.303 97.4312 40.9552 91.7166L38.9589 91.8381ZM40.4766 110H19.918V112H40.4766V110ZM20.918 110.996C20.8684 97.9037 20.2237 85.7209 18.9823 74.4491L16.9943 74.6681C18.2269 85.8598 18.8686 97.9713 18.918 111.004L20.918 110.996ZM18.9823 74.4491C17.7406 63.175 15.8034 52.1966 13.1702 41.5146L11.2283 41.9933C13.8398 52.5872 15.762 63.4787 16.9943 74.6681L18.9823 74.4491ZM13.1714 41.5199C10.5884 30.7901 7.18696 19.7429 2.96875 8.37858L1.09375 9.07454C5.28699 20.3716 8.66424 31.3427 11.227 41.988L13.1714 41.5199ZM2.34229 9.67696L22.7524 2.99727L22.1304 1.09648L1.72021 7.77617L2.34229 9.67696ZM21.5075 2.40452C23.2903 7.05943 24.9005 11.1717 26.338 14.7408L28.1932 13.9936C26.761 10.4377 25.155 6.3364 23.3753 1.68923L21.5075 2.40452ZM26.3399 14.7453C27.7683 18.2425 29.1729 21.9387 30.5535 25.8341L32.4386 25.1659C31.0485 21.2436 29.6327 17.5179 28.1914 13.9891L26.3399 14.7453ZM31.4961 26.5H32.2383V24.5H31.4961V26.5Z" fill="#0B2FA6" mask="url(#path-1-outside-1_2515_18114)"/>
</svg>
