<svg width="20" height="20" viewBox="0 0 20 20" fill="none" xmlns="http://www.w3.org/2000/svg">
<path d="M10.0003 13.5005C9.54495 13.5005 9.09018 13.325 8.74548 12.9803L3.31215 7.54697C3.29062 7.52544 3.27734 7.4947 3.27734 7.45885C3.27734 7.423 3.29062 7.39227 3.31215 7.37074C3.33367 7.34921 3.36441 7.33594 3.40026 7.33594C3.43611 7.33594 3.46685 7.34921 3.48837 7.37074L8.92171 12.8041C9.51697 13.3993 10.4836 13.3993 11.0788 12.8041L16.5121 7.37074C16.5337 7.34921 16.5644 7.33594 16.6003 7.33594C16.6361 7.33594 16.6668 7.34921 16.6884 7.37074C16.7099 7.39227 16.7232 7.423 16.7232 7.45885C16.7232 7.4947 16.7099 7.52544 16.6884 7.54697L11.255 12.9803C10.9103 13.325 10.4556 13.5005 10.0003 13.5005Z" fill="#868686" stroke="#868686"/>
</svg>
