<svg width="16" height="17" viewBox="0 0 16 17" fill="none" xmlns="http://www.w3.org/2000/svg">
<path d="M7.99967 15.1673C4.32248 15.1673 1.33301 12.1778 1.33301 8.50065M7.99967 15.1673C11.6769 15.1673 14.6663 12.1778 14.6663 8.50065M7.99967 15.1673C11.6758 15.1673 14.6663 12.1768 14.6663 8.50065M7.99967 15.1673C4.32353 15.1673 1.33301 12.1768 1.33301 8.50065M1.33301 8.50065C1.33301 4.82346 4.32248 1.83398 7.99967 1.83398M1.33301 8.50065C1.33301 4.82451 4.32353 1.83398 7.99967 1.83398M14.6663 8.50065C14.6663 4.82346 11.6769 1.83398 7.99967 1.83398M14.6663 8.50065C14.6663 4.82451 11.6758 1.83398 7.99967 1.83398" fill="#0C0C0C" stroke="#0C0C0C"/>
<mask id="path-2-inside-1_7003_7562" fill="white">
<path d="M10.333 9H6.33301C6.05967 9 5.83301 8.77333 5.83301 8.5C5.83301 8.22667 6.05967 8 6.33301 8H10.333C10.6063 8 10.833 8.22667 10.833 8.5C10.833 8.77333 10.6063 9 10.333 9Z"/>
</mask>
<path d="M10.333 9H6.33301C6.05967 9 5.83301 8.77333 5.83301 8.5C5.83301 8.22667 6.05967 8 6.33301 8H10.333C10.6063 8 10.833 8.22667 10.833 8.5C10.833 8.77333 10.6063 9 10.333 9Z" fill="#0C0C0C"/>
<path d="M10.333 8H6.33301V10H10.333V8ZM6.33301 8C6.61196 8 6.83301 8.22105 6.83301 8.5H4.83301C4.83301 9.32562 5.50739 10 6.33301 10V8ZM6.83301 8.5C6.83301 8.77895 6.61196 9 6.33301 9V7C5.50739 7 4.83301 7.67438 4.83301 8.5H6.83301ZM6.33301 9H10.333V7H6.33301V9ZM10.333 9C10.0541 9 9.83301 8.77895 9.83301 8.5H11.833C11.833 7.67438 11.1586 7 10.333 7V9ZM9.83301 8.5C9.83301 8.22105 10.0541 8 10.333 8V10C11.1586 10 11.833 9.32562 11.833 8.5H9.83301Z" fill="#0C0C0C" mask="url(#path-2-inside-1_7003_7562)"/>
<mask id="path-4-inside-2_7003_7562" fill="white">
<path d="M7.6663 11.0003C7.53964 11.0003 7.41297 10.9536 7.31297 10.8536L5.31297 8.85362C5.11964 8.66029 5.11964 8.34029 5.31297 8.14695L7.31297 6.14695C7.5063 5.95362 7.8263 5.95362 8.01964 6.14695C8.21297 6.34029 8.21297 6.66029 8.01964 6.85362L6.37297 8.50029L8.01964 10.147C8.21297 10.3403 8.21297 10.6603 8.01964 10.8536C7.91964 10.9536 7.79297 11.0003 7.6663 11.0003Z"/>
</mask>
<path d="M7.6663 11.0003C7.53964 11.0003 7.41297 10.9536 7.31297 10.8536L5.31297 8.85362C5.11964 8.66029 5.11964 8.34029 5.31297 8.14695L7.31297 6.14695C7.5063 5.95362 7.8263 5.95362 8.01964 6.14695C8.21297 6.34029 8.21297 6.66029 8.01964 6.85362L6.37297 8.50029L8.01964 10.147C8.21297 10.3403 8.21297 10.6603 8.01964 10.8536C7.91964 10.9536 7.79297 11.0003 7.6663 11.0003Z" fill="#0C0C0C"/>
<path d="M7.31297 10.8536L8.02008 10.1465L7.31297 10.8536ZM5.31297 8.85362L4.60586 9.56073L4.60586 9.56073L5.31297 8.85362ZM5.31297 8.14695L4.60586 7.43985L4.60586 7.43985L5.31297 8.14695ZM7.31297 6.14695L8.02008 6.85406V6.85406L7.31297 6.14695ZM8.01964 6.85362L7.31253 6.14651V6.14651L8.01964 6.85362ZM6.37297 8.50029L5.66586 7.79318L4.95876 8.50029L5.66586 9.20739L6.37297 8.50029ZM8.01964 10.147L7.31253 10.8541L8.01964 10.147ZM7.6663 10.0003C7.79054 10.0003 7.92266 10.0491 8.02008 10.1465L6.60586 11.5607C6.90328 11.8581 7.28873 12.0003 7.6663 12.0003V10.0003ZM8.02008 10.1465L6.02008 8.14651L4.60586 9.56073L6.60586 11.5607L8.02008 10.1465ZM6.02008 8.14651C6.21727 8.3437 6.21727 8.65687 6.02008 8.85406L4.60586 7.43985C4.022 8.0237 4.022 8.97687 4.60586 9.56073L6.02008 8.14651ZM6.02008 8.85406L8.02008 6.85406L6.60586 5.43985L4.60586 7.43985L6.02008 8.85406ZM8.02008 6.85406C7.82289 7.05125 7.50972 7.05125 7.31253 6.85406L8.72674 5.43985C8.14288 4.85599 7.18972 4.85599 6.60586 5.43985L8.02008 6.85406ZM7.31253 6.85406C7.11534 6.65687 7.11534 6.3437 7.31253 6.14651L8.72674 7.56073C9.3106 6.97687 9.3106 6.0237 8.72674 5.43985L7.31253 6.85406ZM7.31253 6.14651L5.66586 7.79318L7.08008 9.20739L8.72674 7.56073L7.31253 6.14651ZM5.66586 9.20739L7.31253 10.8541L8.72674 9.43985L7.08008 7.79318L5.66586 9.20739ZM7.31253 10.8541C7.11534 10.6569 7.11534 10.3437 7.31253 10.1465L8.72674 11.5607C9.3106 10.9769 9.3106 10.0237 8.72674 9.43985L7.31253 10.8541ZM7.31253 10.1465C7.40995 10.0491 7.54206 10.0003 7.6663 10.0003V12.0003C8.04388 12.0003 8.42932 11.8581 8.72674 11.5607L7.31253 10.1465Z" fill="#0C0C0C" mask="url(#path-4-inside-2_7003_7562)"/>
</svg>
