<svg width="24" height="24" viewBox="0 0 24 24" fill="none" xmlns="http://www.w3.org/2000/svg">
<path d="M12 22.75C6.07 22.75 1.25 17.93 1.25 12C1.25 6.07 6.07 1.25 12 1.25C17.93 1.25 22.75 6.07 22.75 12C22.75 17.93 17.93 22.75 12 22.75ZM12 2.75C6.9 2.75 2.75 6.9 2.75 12C2.75 17.1 6.9 21.25 12 21.25C17.1 21.25 21.25 17.1 21.25 12C21.25 6.9 17.1 2.75 12 2.75Z" fill="white"/>
<path d="M15.5 12.75H9.5C9.09 12.75 8.75 12.41 8.75 12C8.75 11.59 9.09 11.25 9.5 11.25H15.5C15.91 11.25 16.25 11.59 16.25 12C16.25 12.41 15.91 12.75 15.5 12.75Z" fill="#414141"/>
<path d="M11.5004 15.7495C11.3104 15.7495 11.1204 15.6795 10.9704 15.5295L7.97043 12.5295C7.68043 12.2395 7.68043 11.7595 7.97043 11.4695L10.9704 8.46945C11.2604 8.17945 11.7404 8.17945 12.0304 8.46945C12.3204 8.75945 12.3204 9.23945 12.0304 9.52945L9.56043 11.9995L12.0304 14.4695C12.3204 14.7595 12.3204 15.2395 12.0304 15.5295C11.8804 15.6795 11.6904 15.7495 11.5004 15.7495Z" fill="white"/>
</svg>
