<svg width="72" height="72" viewBox="0 0 72 72" fill="none" xmlns="http://www.w3.org/2000/svg">
<rect x="0.5" y="0.5" width="71" height="71" rx="11.5" stroke="#08237D"/>
<path d="M36.0007 38.6017C35.7407 38.6017 35.4807 38.5417 35.2407 38.4017L17.5807 28.1818C16.8607 27.7618 16.6206 26.8417 17.0406 26.1217C17.4606 25.4017 18.3606 25.1617 19.1006 25.5817L36.0007 35.3617L52.8007 25.6417C53.5207 25.2217 54.4407 25.4818 54.8606 26.1818C55.2806 26.9018 55.0207 27.8217 54.3207 28.2417L36.7807 38.4017C36.5207 38.5217 36.2607 38.6017 36.0007 38.6017Z" fill="#194BF0"/>
<path d="M36 56.7201C35.18 56.7201 34.5 56.0401 34.5 55.2201V37.0801C34.5 36.2601 35.18 35.5801 36 35.5801C36.82 35.5801 37.5 36.2601 37.5 37.0801V55.2201C37.5 56.0401 36.82 56.7201 36 56.7201Z" fill="#194BF0"/>
<path d="M36.0012 57.5C34.2412 57.5 32.5012 57.12 31.1212 56.36L20.4412 50.42C17.5412 48.82 15.2812 44.96 15.2812 41.64V30.34C15.2812 27.02 17.5412 23.18 20.4412 21.56L31.1212 15.64C33.8612 14.12 38.1412 14.12 40.8812 15.64L51.5612 21.5799C54.4612 23.1799 56.7212 27.04 56.7212 30.36V41.66C56.7212 44.98 54.4612 48.8199 51.5612 50.4399L40.8812 56.36C39.5012 57.12 37.7612 57.5 36.0012 57.5ZM36.0012 17.5C34.7412 17.5 33.5012 17.76 32.5812 18.26L21.9012 24.1999C19.9812 25.2799 18.2812 28.14 18.2812 30.36V41.66C18.2812 43.86 19.9812 46.7399 21.9012 47.8199L32.5812 53.76C34.4012 54.78 37.6012 54.78 39.4212 53.76L50.1012 47.8199C52.0212 46.7399 53.7212 43.88 53.7212 41.66V30.36C53.7212 28.16 52.0212 25.2799 50.1012 24.1999L39.4212 18.26C38.5012 17.76 37.2612 17.5 36.0012 17.5Z" fill="#194BF0"/>
<path d="M46.0023 39.9791C45.1823 39.9791 44.5023 39.2991 44.5023 38.4791V32.0392L26.2623 21.5192C25.5423 21.0992 25.3023 20.1791 25.7223 19.4791C26.1423 18.7591 27.0423 18.5191 27.7623 18.9391L46.7423 29.8992C47.2023 30.1592 47.5023 30.6591 47.5023 31.1991V38.5192C47.5023 39.2992 46.8223 39.9791 46.0023 39.9791Z" fill="#194BF0"/>
</svg>
