<svg width="16" height="16" viewBox="0 0 16 16" fill="none" xmlns="http://www.w3.org/2000/svg">
<g clip-path="url(#clip0_7003_8611)">
<path fill-rule="evenodd" clip-rule="evenodd" d="M2.31344 7.98043C2.11818 8.17569 2.11818 8.49228 2.31344 8.68754L7.31344 13.6875C7.5087 13.8828 7.82528 13.8828 8.02055 13.6875C8.21581 13.4923 8.21581 13.1757 8.02055 12.9804L3.02055 7.98043C2.82528 7.78517 2.5087 7.78517 2.31344 7.98043Z" fill="#9A9A9A"/>
<path fill-rule="evenodd" clip-rule="evenodd" d="M2.64645 2.98043C2.45119 3.17569 2.45119 3.49228 2.64645 3.68754L12.6464 13.6875C12.8417 13.8828 13.1583 13.8828 13.3536 13.6875C13.5488 13.4923 13.5488 13.1757 13.3536 12.9804L3.35355 2.98043C3.15829 2.78517 2.84171 2.78517 2.64645 2.98043Z" fill="#9A9A9A"/>
</g>
<defs>
<clipPath id="clip0_7003_8611">
<rect width="16" height="16" fill="white"/>
</clipPath>
</defs>
</svg>
