<svg width="24" height="24" viewBox="0 0 24 24" fill="none" xmlns="http://www.w3.org/2000/svg">
<path fill-rule="evenodd" clip-rule="evenodd" d="M1.25 6C1.25 4.48122 2.48122 3.25 4 3.25H20C21.5188 3.25 22.75 4.48122 22.75 6V15.315C22.75 17.7847 20.8541 19.8548 18.3713 20.0073C16.3821 20.1295 13.9337 20.25 12 20.25C10.0663 20.25 7.61787 20.1295 5.62865 20.0073C3.14594 19.8548 1.25 17.7847 1.25 15.315V6ZM4 4.75C3.30964 4.75 2.75 5.30964 2.75 6V15.315C2.75 17.0097 4.04673 18.4073 5.72064 18.5101C7.70372 18.632 10.1144 18.75 12 18.75C13.8856 18.75 16.2963 18.632 18.2794 18.5101C19.9533 18.4073 21.25 17.0097 21.25 15.315V6C21.25 5.30964 20.6904 4.75 20 4.75H4Z" fill="#AEAEAE"/>
<path fill-rule="evenodd" clip-rule="evenodd" d="M4 4.75C3.30964 4.75 2.75 5.30964 2.75 6C2.75 6.67218 2.893 7.28495 3.21453 7.76633C4.99859 10.4373 8.25213 12.25 12 12.25C15.7479 12.25 19.0014 10.4373 20.7855 7.76633C21.107 7.28495 21.25 6.67218 21.25 6C21.25 5.30964 20.6904 4.75 20 4.75H4ZM1.25 6C1.25 4.48122 2.48122 3.25 4 3.25H20C21.5188 3.25 22.75 4.48122 22.75 6C22.75 6.86861 22.5671 7.7996 22.0328 8.59948C19.959 11.7042 16.228 13.75 12 13.75C7.77199 13.75 4.04098 11.7042 1.96719 8.59948C1.43292 7.7996 1.25 6.86861 1.25 6Z" fill="#AEAEAE"/>
</svg>
