<svg width="49" height="49" viewBox="0 0 49 49" fill="none" xmlns="http://www.w3.org/2000/svg">
<rect x="0.666016" y="1" width="47" height="47" rx="11.5" stroke="white"/>
<path d="M29.616 35.25C28.486 35.25 27.296 34.98 26.066 34.46C24.866 33.95 23.656 33.25 22.476 32.4C21.306 31.54 20.176 30.58 19.106 29.53C18.046 28.46 17.086 27.33 16.236 26.17C15.376 24.97 14.686 23.77 14.196 22.61C13.676 21.37 13.416 20.17 13.416 19.04C13.416 18.26 13.556 17.52 13.826 16.83C14.106 16.12 14.556 15.46 15.166 14.89C15.936 14.13 16.816 13.75 17.756 13.75C18.146 13.75 18.546 13.84 18.886 14C19.276 14.18 19.606 14.45 19.846 14.81L22.166 18.08C22.376 18.37 22.536 18.65 22.646 18.93C22.776 19.23 22.846 19.53 22.846 19.82C22.846 20.2 22.736 20.57 22.526 20.92C22.376 21.19 22.146 21.48 21.856 21.77L21.176 22.48C21.186 22.51 21.196 22.53 21.206 22.55C21.326 22.76 21.566 23.12 22.026 23.66C22.516 24.22 22.976 24.73 23.436 25.2C24.026 25.78 24.516 26.24 24.976 26.62C25.546 27.1 25.916 27.34 26.136 27.45L26.116 27.5L26.846 26.78C27.156 26.47 27.456 26.24 27.746 26.09C28.296 25.75 28.996 25.69 29.696 25.98C29.956 26.09 30.236 26.24 30.536 26.45L33.856 28.81C34.226 29.06 34.496 29.38 34.656 29.76C34.806 30.14 34.876 30.49 34.876 30.84C34.876 31.32 34.766 31.8 34.556 32.25C34.346 32.7 34.086 33.09 33.756 33.45C33.186 34.08 32.566 34.53 31.846 34.82C31.156 35.1 30.406 35.25 29.616 35.25ZM17.756 15.25C17.206 15.25 16.696 15.49 16.206 15.97C15.746 16.4 15.426 16.87 15.226 17.38C15.016 17.9 14.916 18.45 14.916 19.04C14.916 19.97 15.136 20.98 15.576 22.02C16.026 23.08 16.656 24.18 17.456 25.28C18.256 26.38 19.166 27.45 20.166 28.46C21.166 29.45 22.246 30.37 23.356 31.18C24.436 31.97 25.546 32.61 26.646 33.07C28.356 33.8 29.956 33.97 31.276 33.42C31.786 33.21 32.236 32.89 32.646 32.43C32.876 32.18 33.056 31.91 33.206 31.59C33.326 31.34 33.386 31.08 33.386 30.82C33.386 30.66 33.356 30.5 33.276 30.32C33.246 30.26 33.186 30.15 32.996 30.02L29.676 27.66C29.476 27.52 29.296 27.42 29.126 27.35C28.906 27.26 28.816 27.17 28.476 27.38C28.276 27.48 28.096 27.63 27.896 27.83L27.136 28.58C26.746 28.96 26.146 29.05 25.686 28.88L25.416 28.76C25.006 28.54 24.526 28.2 23.996 27.75C23.516 27.34 22.996 26.86 22.366 26.24C21.876 25.74 21.386 25.21 20.876 24.62C20.406 24.07 20.066 23.6 19.856 23.21L19.736 22.91C19.676 22.68 19.656 22.55 19.656 22.41C19.656 22.05 19.786 21.73 20.036 21.48L20.786 20.7C20.986 20.5 21.136 20.31 21.236 20.14C21.316 20.01 21.346 19.9 21.346 19.8C21.346 19.72 21.316 19.6 21.266 19.48C21.196 19.32 21.086 19.14 20.946 18.95L18.626 15.67C18.526 15.53 18.406 15.43 18.256 15.36C18.096 15.29 17.926 15.25 17.756 15.25ZM26.116 27.51L25.956 28.19L26.226 27.49C26.176 27.48 26.136 27.49 26.116 27.51Z" fill="white"/>
<path d="M30.666 22.25C30.256 22.25 29.916 21.91 29.916 21.5C29.916 21.14 29.556 20.39 28.956 19.75C28.366 19.12 27.716 18.75 27.166 18.75C26.756 18.75 26.416 18.41 26.416 18C26.416 17.59 26.756 17.25 27.166 17.25C28.136 17.25 29.156 17.77 30.046 18.72C30.876 19.61 31.416 20.7 31.416 21.5C31.416 21.91 31.076 22.25 30.666 22.25Z" fill="white"/>
<path d="M34.166 22.25C33.756 22.25 33.416 21.91 33.416 21.5C33.416 18.05 30.616 15.25 27.166 15.25C26.756 15.25 26.416 14.91 26.416 14.5C26.416 14.09 26.756 13.75 27.166 13.75C31.436 13.75 34.916 17.23 34.916 21.5C34.916 21.91 34.576 22.25 34.166 22.25Z" fill="white"/>
</svg>
