<svg width="25" height="24" viewBox="0 0 25 24" fill="none" xmlns="http://www.w3.org/2000/svg">
<path fill-rule="evenodd" clip-rule="evenodd" d="M1.75 11.8926C1.75 5.95552 6.56294 1.14258 12.5 1.14258C18.4371 1.14258 23.25 5.95552 23.25 11.8926C23.25 17.8296 18.4371 22.6426 12.5 22.6426C6.56294 22.6426 1.75 17.8296 1.75 11.8926ZM16.0303 8.47054C16.3232 8.76343 16.3232 9.23831 16.0303 9.5312L13.5607 12.0009L16.0303 14.4705C16.3232 14.7634 16.3232 15.2383 16.0303 15.5312C15.7374 15.8241 15.2626 15.8241 14.9697 15.5312L12.5 13.0615L10.0303 15.5312C9.73744 15.8241 9.26256 15.8241 8.96967 15.5312C8.67678 15.2383 8.67678 14.7634 8.96967 14.4705L11.4393 12.0009L8.96967 9.5312C8.67678 9.23831 8.67678 8.76343 8.96967 8.47054C9.26256 8.17765 9.73744 8.17765 10.0303 8.47054L12.5 10.9402L14.9697 8.47054C15.2626 8.17765 15.7374 8.17765 16.0303 8.47054Z" fill="#AEAEAE"/>
</svg>
