<svg width="80" height="80" viewBox="0 0 80 80" fill="none" xmlns="http://www.w3.org/2000/svg">
<rect x="0.5" y="0.5" width="79" height="79" rx="15.5" fill="white"/>
<rect x="0.5" y="0.5" width="79" height="79" rx="15.5" stroke="#D7D7D7"/>
<path d="M23.2334 38.6332L23.2336 38.6331L23.2247 38.6223C23.0411 38.3994 22.9613 38.0771 23.0263 37.791L23.0264 37.791L23.0281 37.7826L25.2879 26.9836C25.288 26.9834 25.288 26.9833 25.288 26.9832C25.653 25.2568 26.1892 23.694 27.2969 22.5565C28.3878 21.4363 30.1031 20.6602 32.9787 20.6602H47.0387C49.9135 20.6602 51.6289 21.4408 52.7202 22.5636C53.8282 23.7037 54.3644 25.2668 54.7294 26.9829C54.7295 26.9833 54.7296 26.9837 54.7297 26.9842L56.9893 37.8024L56.9892 37.8024L56.9912 37.811C57.0536 38.0858 56.9839 38.3892 56.7935 38.6409C56.5849 38.8712 56.3035 39.0002 55.9987 39.0002H23.9987C23.6881 39.0002 23.4157 38.8676 23.2334 38.6332ZM25.3495 36.3969L25.2222 37.0002H25.8387H54.1387H54.754L54.6282 36.3979L52.7482 27.3979L52.7477 27.3956C52.4699 26.0961 52.1448 24.8723 51.2945 23.9989C50.4217 23.1024 49.0903 22.6602 47.0187 22.6602H32.9787C30.9071 22.6602 29.5758 23.1024 28.703 23.9989C27.8526 24.8723 27.5275 26.0961 27.2498 27.3956L27.2495 27.3969L25.3495 36.3969Z" fill="#494949" stroke="#494949"/>
<path d="M48.3743 58.2642L48.3735 58.2619L47.9736 57.0619L47.9723 57.0582L47.9589 57.019C47.8378 56.665 47.7311 56.3529 47.6154 56.1012C47.4925 55.8339 47.3389 55.5863 47.0984 55.3971C46.8557 55.2061 46.572 55.1116 46.256 55.0612C45.9467 55.012 45.571 55 45.1192 55H34.8792C33.9915 55 33.3355 55.072 32.8687 55.4566C32.6326 55.6512 32.479 55.8968 32.3579 56.1599C32.2408 56.4141 32.1387 56.7204 32.0275 57.054L32.0249 57.0619L31.6256 58.2596C31.6255 58.2599 31.6254 58.2602 31.6253 58.2605C31.4109 58.8935 31.1856 59.5526 30.671 60.0736C30.1773 60.5734 29.3568 61 27.8392 61H24.0792C22.637 61 21.2518 60.3972 20.2883 59.3427C19.3443 58.3077 18.8899 56.9272 19.0171 55.5459L19.0171 55.5458L20.1371 43.3658L20.1371 43.3653C20.2865 41.7226 20.5749 40.1552 21.5308 38.9896C22.4639 37.8518 24.1201 37 27.2392 37H52.7592C55.8781 37 57.5291 37.8517 58.4597 38.9891C59.4137 40.155 59.7019 41.7223 59.8614 43.3672C59.8615 43.3676 59.8615 43.3679 59.8615 43.3683L60.9813 55.5458L60.9813 55.5459C61.1085 56.9272 60.6541 58.3077 59.7101 59.3427C58.7465 60.3972 57.3614 61 55.9192 61H52.1592C50.6429 61 49.8168 60.5691 49.3199 60.0661C48.803 59.5428 48.5769 58.8822 48.3743 58.2642ZM58.2461 58.0197L58.2466 58.0191C58.8236 57.394 59.0892 56.5948 59.0174 55.7573L59.0171 55.7542L57.8971 43.5742L57.8969 43.5721C57.7705 42.2596 57.6253 41.0552 56.8819 40.2241C56.1151 39.367 54.8347 39.02 52.7992 39.02H27.2392C25.1948 39.02 23.9087 39.3666 23.1415 40.2241C22.3969 41.0566 22.2579 42.2623 22.1412 43.575C22.1412 43.5752 22.1412 43.5755 22.1412 43.5757L21.0213 55.7542L21.021 55.7573C20.9494 56.5932 21.2138 57.3911 21.7886 58.0157C22.3716 58.6694 23.2307 59.02 24.0992 59.02H27.8592C28.1208 59.02 28.3537 59.0194 28.5442 58.9982C28.7405 58.9763 28.9522 58.9275 29.1421 58.7884C29.3313 58.6498 29.4412 58.4637 29.521 58.2879C29.5946 58.1259 29.664 57.9216 29.7406 57.6961L29.7526 57.661L29.7526 57.661L29.7543 57.6558L30.1543 56.4358L30.1544 56.4358L30.1564 56.4291C30.4083 55.6232 30.6899 54.7911 31.3358 54.143C31.9622 53.5145 32.9967 53 34.8792 53H45.1192C46.8668 53 47.8561 53.3881 48.4935 53.9501C49.1461 54.5253 49.5075 55.346 49.8658 56.4008L50.2849 57.6381L50.2856 57.6404L50.2966 57.6734C50.3734 57.9038 50.4426 58.1115 50.5158 58.2762C50.595 58.4539 50.704 58.6424 50.8926 58.7832C51.0829 58.9252 51.2958 58.9754 51.4932 58.9978C51.6843 59.0194 51.9178 59.02 52.1792 59.02H55.9392C56.8153 59.02 57.6493 58.6642 58.2461 58.0197Z" fill="#494949" stroke="#494949"/>
<path d="M23.999 33H21.999C21.4552 33 20.999 32.5439 20.999 32C20.999 31.4561 21.4552 31 21.999 31H23.999C24.5429 31 24.999 31.4561 24.999 32C24.999 32.5439 24.5429 33 23.999 33Z" fill="#494949" stroke="#494949"/>
<path d="M57.999 33H55.999C55.4552 33 54.999 32.5439 54.999 32C54.999 31.4561 55.4552 31 55.999 31H57.999C58.5429 31 58.999 31.4561 58.999 32C58.999 32.5439 58.5429 33 57.999 33Z" fill="#494949" stroke="#494949"/>
<path d="M39.999 27C39.4552 27 38.999 26.5439 38.999 26V22C38.999 21.4561 39.4552 21 39.999 21C40.5429 21 40.999 21.4561 40.999 22V26C40.999 26.5439 40.5429 27 39.999 27Z" fill="#494949" stroke="#494949"/>
<path d="M42.999 27H36.999C36.4552 27 35.999 26.5439 35.999 26C35.999 25.4561 36.4552 25 36.999 25H42.999C43.5429 25 43.999 25.4561 43.999 26C43.999 26.5439 43.5429 27 42.999 27Z" fill="#494949" stroke="#494949"/>
<path d="M33.999 47H27.999C27.4552 47 26.999 46.5439 26.999 46C26.999 45.4561 27.4552 45 27.999 45H33.999C34.5429 45 34.999 45.4561 34.999 46C34.999 46.5439 34.5429 47 33.999 47Z" fill="#494949" stroke="#494949"/>
<path d="M51.999 47H45.999C45.4552 47 44.999 46.5439 44.999 46C44.999 45.4561 45.4552 45 45.999 45H51.999C52.5429 45 52.999 45.4561 52.999 46C52.999 46.5439 52.5429 47 51.999 47Z" fill="#494949" stroke="#494949"/>
</svg>
