<svg width="60" height="59" viewBox="0 0 60 59" fill="none" xmlns="http://www.w3.org/2000/svg">
<path d="M43.7982 27.1455C43.351 23.6589 41.3736 20.5137 38.3011 18.4019C35.2285 16.29 31.3125 15.3844 27.4144 15.8844C23.5164 16.3844 19.9556 18.2489 17.5155 21.0678C15.0754 23.8868 13.9558 27.4292 14.4029 30.9158L24.1139 29.6703C23.9621 28.4873 24.342 27.2854 25.1699 26.329C25.9978 25.3726 27.2059 24.74 28.5285 24.5703C29.851 24.4007 31.1797 24.7079 32.2222 25.4245C33.2646 26.141 33.9355 27.2081 34.0873 28.3911L43.7982 27.1455Z" fill="white"/>
<path d="M44.0022 30.026C44.4454 33.5131 43.3216 37.0542 40.8782 39.8703C38.4348 42.6864 34.8719 44.5468 30.9732 45.0422C27.0746 45.5376 23.1596 44.6275 20.0895 42.512C17.0195 40.3966 15.0458 37.2491 14.6026 33.7619L24.315 32.5277C24.4653 33.7109 25.135 34.7788 26.1766 35.4965C27.2183 36.2143 28.5466 36.523 29.8693 36.355C31.1921 36.1869 32.4009 35.5557 33.2299 34.6002C34.0589 33.6448 34.4402 32.4433 34.2899 31.2602L44.0022 30.026Z" fill="#FDB713"/>
<circle cx="29.2168" cy="30.5" r="3.5" fill="white"/>
<circle cx="29.7168" cy="30" r="25" stroke="white" stroke-width="8"/>
<path d="M58.5078 20.6623C60.5436 28.4431 60.426 32.8099 58.4835 40.5862L48.7391 37.0583C49.3099 32.0506 49.2707 29.3697 48.7541 24.7524L58.5078 20.6623Z" fill="#FDB713"/>
<path d="M3.62564 13.3182C8.54939 6.95884 12.0813 4.38828 19.4283 1.18409L22.5768 11.0576C18.2605 13.6599 16.16 15.3264 12.8163 18.5522L3.62564 13.3182Z" fill="#FDB713"/>
</svg>
