<svg width="80" height="80" viewBox="0 0 80 80" fill="none" xmlns="http://www.w3.org/2000/svg">
<rect x="0.5" y="0.5" width="79" height="79" rx="15.5" fill="white"/>
<rect x="0.5" y="0.5" width="79" height="79" rx="15.5" stroke="#D7D7D7"/>
<path d="M32 27.5C31.18 27.5 30.5 26.82 30.5 26V20C30.5 19.18 31.18 18.5 32 18.5C32.82 18.5 33.5 19.18 33.5 20V26C33.5 26.82 32.82 27.5 32 27.5Z" fill="#494949"/>
<path d="M48 27.5C47.18 27.5 46.5 26.82 46.5 26V20C46.5 19.18 47.18 18.5 48 18.5C48.82 18.5 49.5 19.18 49.5 20V26C49.5 26.82 48.82 27.5 48 27.5Z" fill="#494949"/>
<path d="M33 45C32.48 45 31.96 44.78 31.58 44.42C31.22 44.04 31 43.54 31 43C31 42.74 31.06 42.48 31.16 42.24C31.26 42 31.4 41.78 31.58 41.58C32.32 40.84 33.66 40.84 34.42 41.58C34.78 41.96 35 42.48 35 43C35 43.12 34.98 43.26 34.96 43.4C34.94 43.52 34.9 43.64 34.84 43.76C34.8 43.88 34.74 44 34.66 44.12C34.58 44.22 34.5 44.32 34.42 44.42C34.04 44.78 33.52 45 33 45Z" fill="#494949"/>
<path d="M40 45C39.74 45 39.48 44.94 39.24 44.84C38.98 44.74 38.78 44.6 38.58 44.42C38.22 44.04 38 43.54 38 43C38 42.74 38.06 42.48 38.16 42.24C38.26 42 38.4 41.78 38.58 41.58C38.78 41.4 38.98 41.26 39.24 41.16C39.98 40.86 40.86 41.02 41.42 41.58C41.78 41.96 42 42.48 42 43C42 43.12 41.98 43.26 41.96 43.4C41.94 43.52 41.9 43.64 41.84 43.76C41.8 43.88 41.74 44 41.66 44.12C41.6 44.22 41.5 44.32 41.42 44.42C41.04 44.78 40.52 45 40 45Z" fill="#494949"/>
<path d="M33 52.0001C32.74 52.0001 32.48 51.9401 32.24 51.8401C31.98 51.7401 31.76 51.6 31.58 51.42C31.4 51.24 31.26 51.0201 31.16 50.7601C31.06 50.5201 31 50.2601 31 50.0001C31 49.7401 31.06 49.48 31.16 49.24C31.26 48.98 31.4 48.7601 31.58 48.5801C31.76 48.4001 31.98 48.26 32.24 48.16C32.72 47.96 33.28 47.94 33.76 48.16C34.02 48.26 34.24 48.4001 34.42 48.5801C34.6 48.7601 34.74 48.98 34.84 49.24C34.94 49.48 35 49.7401 35 50.0001C35 50.2601 34.94 50.5201 34.84 50.7601C34.74 51.0201 34.6 51.24 34.42 51.42C34.24 51.6 34.02 51.7401 33.76 51.8401C33.52 51.9401 33.26 52.0001 33 52.0001Z" fill="#494949"/>
<path d="M57 35.6799H23C22.18 35.6799 21.5 34.9999 21.5 34.1799C21.5 33.3599 22.18 32.6799 23 32.6799H57C57.82 32.6799 58.5 33.3599 58.5 34.1799C58.5 34.9999 57.82 35.6799 57 35.6799Z" fill="#494949"/>
<path d="M52 63.5C49.66 63.5 47.44 62.66 45.74 61.12C45.02 60.52 44.38 59.76 43.86 58.88C42.98 57.44 42.5 55.74 42.5 54C42.5 48.76 46.76 44.5 52 44.5C54.72 44.5 57.32 45.68 59.12 47.72C60.66 49.48 61.5 51.7 61.5 54C61.5 55.74 61.02 57.44 60.12 58.9C58.44 61.74 55.32 63.5 52 63.5ZM52 47.5C48.42 47.5 45.5 50.42 45.5 54C45.5 55.18 45.82 56.34 46.44 57.34C46.78 57.94 47.22 58.44 47.7 58.86C48.9 59.94 50.4 60.5 52 60.5C54.3 60.5 56.38 59.32 57.56 57.36C58.18 56.34 58.5 55.2 58.5 54C58.5 52.44 57.92 50.92 56.88 49.7C55.64 48.3 53.86 47.5 52 47.5Z" fill="#494949"/>
<path d="M50.8598 57.48C50.4798 57.48 50.0998 57.34 49.7998 57.04L47.8198 55.06C47.2398 54.48 47.2398 53.52 47.8198 52.94C48.3998 52.36 49.3598 52.36 49.9398 52.94L50.8998 53.9L54.0998 50.94C54.6998 50.38 55.6598 50.42 56.2198 51.02C56.7798 51.62 56.7398 52.58 56.1398 53.14L51.8798 57.08C51.5798 57.34 51.2198 57.48 50.8598 57.48Z" fill="#494949"/>
<path d="M46.74 61.5H32C24.7 61.5 20.5 57.3 20.5 50V33C20.5 25.7 24.7 21.5 32 21.5H48C55.3 21.5 59.5 25.7 59.5 33V48.72C59.5 49.34 59.12 49.9 58.52 50.12C57.94 50.34 57.28 50.18 56.86 49.7C55.62 48.3 53.84 47.5 51.98 47.5C48.4 47.5 45.48 50.42 45.48 54C45.48 55.18 45.8 56.34 46.42 57.34C46.76 57.94 47.2 58.44 47.68 58.86C48.16 59.26 48.34 59.92 48.12 60.52C47.94 61.1 47.38 61.5 46.74 61.5ZM32 24.5C26.28 24.5 23.5 27.28 23.5 33V50C23.5 55.72 26.28 58.5 32 58.5H43.64C42.9 57.14 42.5 55.6 42.5 54C42.5 48.76 46.76 44.5 52 44.5C53.58 44.5 55.14 44.9 56.5 45.64V33C56.5 27.28 53.72 24.5 48 24.5H32Z" fill="#494949"/>
</svg>
