<svg width="80" height="80" viewBox="0 0 80 80" fill="none" xmlns="http://www.w3.org/2000/svg">
<rect x="0.5" y="0.5" width="79" height="79" rx="15.5" fill="white"/>
<rect x="0.5" y="0.5" width="79" height="79" rx="15.5" stroke="#D7D7D7"/>
<path d="M23.4887 60.3646L23.487 60.3643C21.6322 60.1146 19.9241 58.4313 19.6352 56.5285C19.635 56.5274 19.6348 56.5263 19.6347 56.5252L19.0357 52.152L19.0352 52.1491C18.9485 51.5416 19.0336 50.8156 19.2651 50.114C19.4962 49.4137 19.8608 48.7759 20.2956 48.3316C20.2962 48.3311 20.2967 48.3305 20.2973 48.3299L29.0738 39.5534L29.274 39.3532L29.2053 39.0786C27.8277 33.5679 29.4189 27.7495 33.4721 23.7351L33.4733 23.7339C39.7584 17.4682 49.9825 17.4489 56.287 23.7336C59.3324 26.7792 61.0003 30.8317 61.0003 35.1398C61.0003 39.4478 59.3326 43.5001 56.2874 46.5456C52.2105 50.583 46.4109 52.1712 40.944 50.7754L40.6684 50.705L40.4671 50.9059L31.6671 59.6859L31.667 59.6858L31.6586 59.6946C30.9264 60.4616 29.5645 60.9998 28.3603 60.9998C28.1908 60.9998 27.9957 60.9828 27.8221 60.9636L23.4887 60.3646ZM20.9845 51.8445L20.9849 51.8477L21.5849 56.2277L21.5848 56.2277L21.5864 56.2378C21.6671 56.7487 21.9683 57.2438 22.3326 57.6167C22.6951 57.9879 23.1864 58.3056 23.7137 58.3754C23.7141 58.3755 23.7146 58.3755 23.715 58.3756L28.0658 58.9743C28.4173 59.0308 28.8419 58.9558 29.1942 58.8439C29.5485 58.7313 29.9416 58.5457 30.1938 58.2934L39.6335 48.8738L39.6338 48.8734C39.8935 48.6137 40.2767 48.5286 40.6318 48.6373C45.6308 50.213 51.0837 48.8635 54.8138 45.1334C57.4682 42.479 58.9403 38.9116 58.9403 35.1398C58.9403 31.3484 57.4684 27.8016 54.8152 25.1477C52.116 22.4077 48.4858 21.0198 44.8603 21.0198C41.2343 21.0198 37.6254 22.3879 34.8673 25.1457C31.1356 28.857 29.7887 34.2889 31.3415 39.3441C31.4487 39.7087 31.3558 40.0773 31.0867 40.3463L21.6867 49.7463C21.435 49.998 21.2496 50.3904 21.1352 50.739C21.0205 51.0885 20.9404 51.5067 20.9845 51.8445Z" fill="#494949" stroke="#494949"/>
<path d="M34.3802 56.5794C34.1256 56.5794 33.875 56.4871 33.6737 56.2858L29.0737 51.6858C28.689 51.3011 28.689 50.6577 29.0737 50.2729C29.4584 49.8882 30.1019 49.8882 30.4866 50.2729L35.0866 54.8729C35.4713 55.2577 35.4713 55.9011 35.0866 56.2858C34.8853 56.4871 34.6347 56.5794 34.3802 56.5794Z" fill="#494949" stroke="#494949"/>
<path d="M45 39C42.7961 39 41 37.2039 41 35C41 32.7961 42.7961 31 45 31C47.2039 31 49 32.7961 49 35C49 37.2039 47.2039 39 45 39ZM45 33C43.9039 33 43 33.9039 43 35C43 36.0961 43.9039 37 45 37C46.0961 37 47 36.0961 47 35C47 33.9039 46.0961 33 45 33Z" fill="#494949" stroke="#494949"/>
</svg>
