<svg width="49" height="49" viewBox="0 0 49 49" fill="none" xmlns="http://www.w3.org/2000/svg">
<rect x="1.33301" y="1" width="47" height="47" rx="11.5" stroke="white"/>
<path d="M28.483 33.9102C28.053 33.9102 27.623 33.8202 27.273 33.6502L22.023 31.0202C21.723 30.8702 21.133 30.8802 20.843 31.0502L18.483 32.4002C17.463 32.9802 16.413 33.0602 15.623 32.5902C14.823 32.1302 14.373 31.1902 14.373 30.0102V20.2902C14.373 19.3802 14.973 18.3502 15.763 17.9002L20.093 15.4202C20.823 15.0002 21.933 14.9702 22.683 15.3502L27.933 17.9802C28.233 18.1302 28.813 18.1102 29.113 17.9502L31.463 16.6102C32.483 16.0302 33.533 15.9502 34.323 16.4202C35.123 16.8802 35.573 17.8202 35.573 19.0002V28.7302C35.573 29.6402 34.973 30.6702 34.183 31.1202L29.853 33.6002C29.473 33.8002 28.973 33.9102 28.483 33.9102ZM21.473 29.4202C21.903 29.4202 22.333 29.5102 22.683 29.6802L27.933 32.3102C28.233 32.4602 28.813 32.4402 29.113 32.2802L33.443 29.8002C33.763 29.6202 34.073 29.0802 34.073 28.7202V18.9902C34.073 18.3602 33.893 17.8902 33.563 17.7102C33.243 17.5302 32.743 17.6002 32.203 17.9102L29.853 19.2502C29.123 19.6702 28.013 19.7002 27.263 19.3202L22.013 16.6902C21.713 16.5402 21.133 16.5602 20.833 16.7202L16.503 19.2002C16.183 19.3802 15.873 19.9202 15.873 20.2902V30.0202C15.873 30.6502 16.053 31.1202 16.373 31.3002C16.693 31.4902 17.193 31.4102 17.743 31.1002L20.093 29.7602C20.483 29.5302 20.983 29.4202 21.473 29.4202Z" fill="white"/>
<path d="M21.3926 30.25C20.9826 30.25 20.6426 29.91 20.6426 29.5V16.5C20.6426 16.09 20.9826 15.75 21.3926 15.75C21.8026 15.75 22.1426 16.09 22.1426 16.5V29.5C22.1426 29.91 21.8026 30.25 21.3926 30.25Z" fill="white"/>
<path d="M28.5635 33.2491C28.1535 33.2491 27.8135 32.9091 27.8135 32.4991V19.1191C27.8135 18.7091 28.1535 18.3691 28.5635 18.3691C28.9735 18.3691 29.3135 18.7091 29.3135 19.1191V32.4991C29.3135 32.9091 28.9735 33.2491 28.5635 33.2491Z" fill="white"/>
</svg>
