<svg width="80" height="81" viewBox="0 0 80 81" fill="none" xmlns="http://www.w3.org/2000/svg">
<rect x="0.5" y="1" width="79" height="79" rx="15.5" fill="white"/>
<rect x="0.5" y="1" width="79" height="79" rx="15.5" stroke="#D7D7D7"/>
<path d="M54 42.7207H20C19.4561 42.7207 19 42.2646 19 41.7207C19 41.1768 19.4561 40.7207 20 40.7207H54C54.5439 40.7207 55 41.1768 55 41.7207C55 42.2646 54.5439 42.7207 54 42.7207Z" fill="#494949" stroke="#494949"/>
<path d="M26.0383 30.6401L26.0383 30.64L26.0294 30.6406C24.2556 30.7496 22.8983 30.9908 22.0527 32.0104C21.6338 32.5155 21.3751 33.1699 21.2181 33.9871C21.0614 34.8027 21 35.8133 21 37.0596V51.0396C21 52.3256 21.052 53.3794 21.2226 54.2293C21.3943 55.0849 21.6943 55.7761 22.2216 56.2957C22.748 56.8146 23.4478 57.1097 24.3151 57.2791C25.1777 57.4476 26.2491 57.4996 27.5601 57.4996H46.4399C47.7357 57.4996 48.7942 57.45 49.6474 57.2901C50.5042 57.1295 51.1977 56.85 51.7242 56.3571C52.2534 55.8616 52.5606 55.2006 52.7416 54.3823C52.9211 53.5712 52.9849 52.5671 53 51.3458H53V51.3396V37.0596C53 35.7737 52.948 34.7198 52.7774 33.87C52.6057 33.0143 52.3057 32.3231 51.7784 31.8035C51.252 31.2847 50.5522 30.9895 49.6849 30.8201C48.8223 30.6517 47.7509 30.5996 46.4399 30.5996H27.5601C27.0084 30.5996 26.499 30.6201 26.0383 30.6401ZM46.4399 59.4996H27.5601C24.1526 59.4996 22.0668 58.9509 20.8092 57.7067C19.5531 56.464 19 54.4053 19 51.0396V37.0596C19 34.3806 19.3103 32.3823 20.2919 31.0077C21.2483 29.6684 22.925 28.8152 25.9442 28.6391C26.4629 28.6191 26.9926 28.5996 27.5601 28.5996H46.4399C49.8474 28.5996 51.9332 29.1483 53.1908 30.3926C54.4469 31.6352 55 33.694 55 37.0596V51.3566C54.96 54.5972 54.3902 56.5753 53.1374 57.7703C51.8788 58.9707 49.8085 59.4996 46.4399 59.4996Z" fill="#494949" stroke="#494949"/>
<path d="M53.3335 52.1064L53.3274 52.1004L53.3211 52.0945C53.12 51.9068 53 51.6381 53 51.36V37.06C53 35.7741 52.948 34.7202 52.7774 33.8704C52.6057 33.0147 52.3057 32.3235 51.7784 31.8039C51.252 31.285 50.5522 30.9899 49.6849 30.8205C48.8223 30.6521 47.7509 30.6 46.4399 30.6H27.5601C27.0084 30.6 26.499 30.6204 26.0383 30.6405L26.0383 30.6405L26.0351 30.6406C25.7832 30.6532 25.5122 30.5515 25.3011 30.3545C25.1124 30.1784 25.0007 29.9165 25 29.6228C25.04 26.3927 25.6097 24.4197 26.8623 23.2271C28.1209 22.0289 30.1916 21.5 33.5601 21.5H52.4399C55.8474 21.5 57.9332 22.0487 59.1908 23.2929C60.4469 24.5356 61 26.5943 61 29.96V43.94C61 46.6191 60.6897 48.6173 59.7081 49.9919C58.7528 51.3298 57.0785 52.1826 54.0654 52.36H54.0653H54.0652H54.065H54.0649H54.0647H54.0645H54.0644H54.0642H54.0641H54.0639H54.0638H54.0636H54.0634H54.0633H54.0631H54.063H54.0628H54.0626H54.0625H54.0623H54.0622H54.062H54.0618H54.0617H54.0615H54.0614H54.0612H54.061H54.0609H54.0607H54.0605H54.0604H54.0602H54.0601H54.0599H54.0597H54.0596H54.0594H54.0592H54.0591H54.0589H54.0587H54.0586H54.0584H54.0582H54.0581H54.0579H54.0577H54.0576H54.0574H54.0572H54.0571H54.0569H54.0567H54.0566H54.0564H54.0562H54.0561H54.0559H54.0557H54.0556H54.0554H54.0552H54.0551H54.0549H54.0547H54.0546H54.0544H54.0542H54.054H54.0539H54.0537H54.0535H54.0534H54.0532H54.053H54.0529H54.0527H54.0525H54.0523H54.0522H54.052H54.0518H54.0517H54.0515H54.0513H54.0511H54.051H54.0508H54.0506H54.0505H54.0503H54.0501H54.0499H54.0498H54.0496H54.0494H54.0492H54.0491H54.0489H54.0487H54.0485H54.0484H54.0482H54.048H54.0479H54.0477H54.0475H54.0473H54.0472H54.047H54.0468H54.0466H54.0465H54.0463H54.0461H54.0459H54.0458H54.0456H54.0454H54.0452H54.0451H54.0449H54.0447H54.0445H54.0444H54.0442H54.044H54.0438H54.0437H54.0435H54.0433H54.0431H54.043H54.0428H54.0426H54.0424H54.0423H54.0421H54.0419H54.0417H54.0416H54.0414H54.0412H54.041H54.0409H54.0407H54.0405H54.0403H54.0402H54.04H54.0398H54.0396H54.0395H54.0393H54.0391H54.0389H54.0387H54.0386H54.0384H54.0382H54.038H54.0379H54.0377H54.0375H54.0373H54.0372H54.037H54.0368H54.0366H54.0365H54.0363H54.0361H54.0359H54.0358H54.0356H54.0354H54.0352H54.0351H54.0349H54.0347H54.0345H54.0344H54.0342H54.034H54.0338H54.0337H54.0335H54.0333H54.0331H54.033H54.0328H54.0326H54.0324H54.0323H54.0321H54.0319H54.0318H54.0316H54.0314H54.0312H54.0311H54.0309H54.0307H54.0305H54.0304H54.0302H54.03H54.0298H54.0297H54.0295H54.0293H54.0292H54.029H54.0288H54.0286H54.0285H54.0283H54.0281H54.028H54.0278H54.0276H54.0274H54.0273H54.0271H54.0269H54.0268H54.0266H54.0264H54.0262H54.0261H54.0259H54.0257H54.0256H54.0254H54.0252H54.0251H54.0249H54.0247H54.0246H54.0244H54.0242H54.024H54.0239H54.0237H54.0235H54.0234H54.0232H54.023H54.0229H54.0227H54.0225H54.0224H54.0222H54.022H54.0219H54.0217H54.0215H54.0214H54.0212H54.0211H54.0209H54.0207H54.0206H54.0204H54.0202H54.0201H54.0199H54.0197H54.0196H54.0194H54.0193H54.0191H54.0189H54.0188H54.0186H54.0184H54.0183H54.0181H54.018H54.0178H54.0176H54.0175H54.0173H54.0172H54.017H54.0168H54.0167H54.0165H54.0164H54.0162H54.016H54.0159H54.0157H54.0156H54.0154H54.0153H54.0151H54.0149H54.0148H54.0146H54.0145H54.0143H54.0142H54.014H54.0139H54.0137H54.0136H54.0134H54.0132H54.0131H54.0129H54.0128H54.0126H54.0125H54.0123H54.0122H54.012H54.0119H54.0117H54.0116H54.0114H54.0113H54.0111H54.011H54.0108H54.0107H54.0105H54.0104H54.0102H54.0101H54.0099H54.0098H54.0097H54.0095H54.0094H54.0092H54.0091H54.0089H54.0088H54.0086H54.0085H54.0084H54.0082H54.0081H54.0079H54.0078H54.0076H54.0075H54.0074H54.0072H54.0071H54.0069H54.0068H54.0067H54.0065H54.0064H54.0063H54.0061H54.006H54.0058H54.0057H54.0056H54.0054H54.0053H54.0052H54.005H54.0049H54.0048H54.0046H54.0045H54.0044H54.0042H54.0041H54.004H54.0038H54.0037H54.0036H54.0035H54.0033H54.0032H54.0031H54.0029H54.0028H54.0027H54.0026H54.0024H54.0023H54.0022H54.0021H54.0019H54.0018H54.0017H54.0016H54.0014H54.0013H54.0012H54.0011H54.001H54.0008H54.0007H54.0006H54.0005H54.0004H54.0002H54.0001H54C53.7344 52.36 53.4876 52.2605 53.3335 52.1064ZM27.0614 28.0627L27.0213 28.6H27.5601H46.4399C49.8474 28.6 51.9332 29.1487 53.1908 30.3929C54.4469 31.6356 55 33.6943 55 37.06V49.7V50.2986L55.5891 50.192C56.831 49.9672 57.7528 49.5063 58.312 48.4487C58.836 47.4578 59 46.0076 59 43.94V29.96C59 28.6741 58.948 27.6202 58.7774 26.7704C58.6057 25.9147 58.3057 25.2235 57.7784 24.7039C57.252 24.185 56.5522 23.8899 55.6849 23.7205C54.8223 23.5521 53.7509 23.5 52.4399 23.5H33.5601C32.4134 23.5 31.455 23.5386 30.6618 23.6567C29.869 23.7747 29.2062 23.9766 28.6729 24.3272C27.5662 25.0547 27.1933 26.2978 27.0614 28.0627Z" fill="#494949" stroke="#494949"/>
<path d="M29.9205 53.1191H26.4805C25.9366 53.1191 25.4805 52.663 25.4805 52.1191C25.4805 51.5753 25.9366 51.1191 26.4805 51.1191H29.9205C30.4644 51.1191 30.9205 51.5753 30.9205 52.1191C30.9205 52.6674 30.4801 53.1191 29.9205 53.1191Z" fill="#494949" stroke="#494949"/>
<path d="M41.0997 53.1191H34.2197C33.6759 53.1191 33.2197 52.663 33.2197 52.1191C33.2197 51.5753 33.6759 51.1191 34.2197 51.1191H41.0997C41.6436 51.1191 42.0997 51.5753 42.0997 52.1191C42.0997 52.6674 41.6593 53.1191 41.0997 53.1191Z" fill="#494949" stroke="#494949"/>
</svg>
