<svg width="72" height="72" viewBox="0 0 72 72" fill="none" xmlns="http://www.w3.org/2000/svg">
<rect x="0.5" y="0.5" width="71" height="71" rx="11.5" stroke="#08237D"/>
<path d="M41 45.5H31C30.18 45.5 29.5 44.82 29.5 44C29.5 43.18 30.18 42.5 31 42.5H41C41.82 42.5 42.5 43.18 42.5 44C42.5 44.82 41.82 45.5 41 45.5Z" fill="#194BF0"/>
<path d="M22.4004 32.9198C22.0204 32.9198 21.6404 32.7598 21.3404 32.4798C20.9204 32.0598 20.7804 31.3998 21.0204 30.8398L24.7404 21.9598C24.8204 21.7798 24.8604 21.6598 24.9204 21.5598C27.8804 14.7398 31.6604 13.0798 38.3404 15.6398C38.7204 15.7798 39.0204 16.0798 39.1804 16.4598C39.3404 16.8398 39.3404 17.2598 39.1804 17.6398L33.3204 31.2398C33.0804 31.7798 32.5404 32.1398 31.9404 32.1398H26.2404C25.1004 32.1398 24.0204 32.3598 22.9804 32.7998C22.8004 32.8798 22.6004 32.9198 22.4004 32.9198ZM33.2204 17.4998C30.7404 17.4998 29.2204 19.1198 27.6404 22.7998C27.6204 22.8598 27.5804 22.9198 27.5604 22.9798L24.9404 29.1998C25.3804 29.1598 25.8004 29.1398 26.2404 29.1398H30.9404L35.7604 17.9398C34.8204 17.6398 33.9804 17.4998 33.2204 17.4998Z" fill="#194BF0"/>
<path d="M48.5805 32.5391C48.4405 32.5391 48.2805 32.5191 48.1405 32.4791C47.4005 32.2591 46.5805 32.1391 45.7405 32.1391H31.9405C31.4405 32.1391 30.9605 31.8791 30.6805 31.4591C30.4205 31.0391 30.3605 30.4991 30.5605 30.0391L36.3605 16.5791C36.6605 15.8591 37.5205 15.3791 38.2805 15.6191C38.5205 15.6991 38.7405 15.7991 38.9805 15.8991L43.7005 17.8791C46.4605 19.0191 48.3005 20.2191 49.5005 21.6591C49.7405 21.9391 49.9405 22.2391 50.1205 22.5391C50.3405 22.8791 50.5405 23.2991 50.6805 23.7191C50.7405 23.8591 50.8405 24.1191 50.9005 24.3991C51.4605 26.2791 51.1805 28.6191 49.9805 31.6191C49.7405 32.1791 49.1805 32.5391 48.5805 32.5391ZM34.2205 29.1391H45.7605C46.4005 29.1391 47.0205 29.1991 47.6405 29.2991C48.2005 27.5591 48.3205 26.2191 48.0005 25.1391C47.9605 24.9591 47.9205 24.8791 47.9005 24.7991C47.7805 24.4791 47.7005 24.2991 47.6005 24.1391C47.4605 23.9191 47.3605 23.7391 47.2005 23.5591C46.3405 22.5191 44.8205 21.5591 42.5605 20.6391L38.6005 18.9791L34.2205 29.1391Z" fill="#194BF0"/>
<path d="M43.8 57.5006H28.2C27.64 57.5006 27.12 57.4606 26.6 57.4006C19.58 56.9206 15.58 52.9206 15.1 45.8206C15.04 45.3806 15 44.8406 15 44.3006V40.4006C15 35.9006 17.68 31.8406 21.82 30.0406C23.22 29.4406 24.72 29.1406 26.26 29.1406H45.78C46.92 29.1406 48.02 29.3006 49.04 29.6206C53.74 31.0406 57.04 35.4806 57.04 40.4006V44.3006C57.04 44.7406 57.02 45.1606 57 45.5606C56.56 53.3806 52 57.5006 43.8 57.5006ZM26.24 32.1406C25.1 32.1406 24.02 32.3606 22.98 32.8006C19.94 34.1206 17.98 37.1006 17.98 40.4006V44.3006C17.98 44.7206 18.02 45.1406 18.06 45.5406C18.44 51.2406 21.24 54.0406 26.86 54.4206C27.36 54.4806 27.76 54.5206 28.18 54.5206H43.78C50.38 54.5206 53.62 51.6206 53.94 45.4206C53.96 45.0606 53.98 44.7006 53.98 44.3006V40.4006C53.98 36.7806 51.56 33.5406 48.12 32.4806C47.38 32.2606 46.56 32.1406 45.72 32.1406H26.24Z" fill="#194BF0"/>
<path d="M16.4805 41.8996C15.6605 41.8996 14.9805 41.2196 14.9805 40.3996V34.5396C14.9805 28.2396 19.4405 22.7996 25.6005 21.5996C26.1405 21.4996 26.7005 21.6996 27.0605 22.1196C27.4005 22.5396 27.5005 23.1396 27.2805 23.6396L23.7805 31.9996C23.6205 32.3596 23.3405 32.6396 23.0005 32.7996C19.9605 34.1196 18.0005 37.0996 18.0005 40.3996C17.9805 41.2196 17.3205 41.8996 16.4805 41.8996ZM23.2005 25.6396C20.6405 27.0796 18.7805 29.5996 18.2005 32.5396C19.0805 31.6396 20.1005 30.8796 21.2605 30.3196L23.2005 25.6396Z" fill="#194BF0"/>
<path d="M55.5203 41.8996C54.7003 41.8996 54.0203 41.2196 54.0203 40.3996C54.0203 36.7796 51.6003 33.5396 48.1603 32.4796C47.7603 32.3596 47.4203 32.0796 47.2403 31.6996C47.0603 31.3196 47.0403 30.8796 47.2003 30.4996C48.1403 28.1596 48.3803 26.4596 48.0003 25.1396C47.9603 24.9596 47.9203 24.8796 47.9003 24.7996C47.6403 24.2196 47.7803 23.5396 48.2403 23.0996C48.7003 22.6596 49.4003 22.5596 49.9603 22.8596C54.3203 25.1396 57.0203 29.6196 57.0203 34.5396V40.3996C57.0203 41.2196 56.3403 41.8996 55.5203 41.8996ZM50.5003 30.1796C51.7603 30.7596 52.8803 31.5796 53.8203 32.5596C53.4403 30.5996 52.5003 28.8196 51.1203 27.4196C51.0203 28.2596 50.8203 29.1796 50.5003 30.1796Z" fill="#194BF0"/>
</svg>
